<svg xmlns="http://www.w3.org/2000/svg" xmlns:xlink="http://www.w3.org/1999/xlink" viewBox="0 0 697 1129">
	<defs>
		<style>
			:root {
				--c1: #fff;
				--c2: #216b6d;
				--c3: #47a6af;
				--c4: #0c8486;
				--c5: #349ea8;
				--c6: #3ca3ae;
				--o1: .2;
				--o2: .4;
			}
			text {
				font-family: verdana;
				font-size: 4em;
				fill: #fff;
				-webkit-transform: rotate(45deg);
				        transform: rotate(45deg);
				-webkit-transform-origin: center;
				        transform-origin: center;
			}
		</style>
		<linearGradient id="lGrad1">
			<stop offset="0" stop-color="#216b6d"/>
			<stop offset="1" stop-color="#47a6af"/>
		</linearGradient>
		<linearGradient id="lGrad2">
			<stop offset="0" stop-color="#0c8486"/>
			<stop offset="1" stop-color="#349ea8"/>
		</linearGradient>
		<linearGradient id="lGrad3" xlink:href="#lGrad2" gradientTransform="translate(-72.87 .38)" gradientUnits="userSpaceOnUse" x1="752.5" x2="104.03" y1="828.08" y2="105.24"/>
		<linearGradient id="lGrad4" xlink:href="#lGrad1" gradientTransform="translate(-72.87 .38)" gradientUnits="userSpaceOnUse" x1="344.6" x2="287.03" y1="1010.79" y2="50.09"/>
		<filter id="filter1">
			<feGaussianBlur stdDeviation="30.89"/>
		</filter>
		<filter id="filter2" width="1.24" height="1.06" x="-.12" y="-.03">
			<feGaussianBlur stdDeviation="16.07"/>
		</filter>
		<filter id="filter3">
			<feGaussianBlur stdDeviation="17.99"/>
		</filter>
		<filter id="filter4" width="1.18" height="1.21" x="-.09" y="-.1">
			<feGaussianBlur stdDeviation="8.02"/>
		</filter>
	</defs>
	<g>
		<path filter="url(#filter4)" opacity=".2" d="M209.84 99.42s-29.6-46.16-68.9-75.23c-27.67-6.18-36.19-2.32-67 19.83-42.67 30.66-43.22 42.52-43.22 51.1 16.35 63.34 35.2 77.01 48.77 86.61l-.93-.42s11.28-76.17 131.28-81.89z"/>
		<path filter="url(#filter2)" opacity=".4" d="M129.84 14.66c13.02 12.66 55.1 35.04 51.12 67.7 104.3 178.05 25.57 502.18-40.65 729.19 0 0-25.67 90.61-19.04 108.42 6.62 17.8 3.45 16.06 54.77 57.6 45.48 36.81 100.53 107.33 108.8 141.46l65.04-607.45s2.27-253.72.61-304.17c-1.65-50.44-18.2-114.2-102.64-148.32-39.58-16-89.72-38.77-118.01-44.43z"/>
		<path fill="#3ca3ae" d="M209.84 99.42S204.31 67.7 165 38.62c-27.67-6.17-52.76-2.31-83.58 19.83-42.67 30.66-44.29 54.29-44.29 62.86 16.36 63.35 28.79 50.82 42.36 60.42l-.93-.42s11.28-76.17 131.28-81.89z"/>
		<path fill="url(#lGrad4)" d="M165 38.63c11.24 12.19 24.37 35.32 36.53 63.82 74.4 174.38-14.4 458.86-71.54 677.43 0 0-22.14 78.57-16.43 95.72 5.72 17.14 25 37.14 69.29 77.14 39.24 35.44 82.86 61.43 90 94.28l60-534.28s7.14-244.29 5.71-292.86C337.13 171.31 322.85 105.6 250 72.74c-34.15-15.4-60.58-28.66-84.99-34.11z"/>
		<path filter="url(#filter3)" opacity=".4" d="M69.65 151.42s-23.43-32.66-42.8-66.1c0 9.44-5.9 111.75-5.9 111.75s-5.9 72.4 38.37 129.07c44.27 56.66 199.2 269.15 495.79 481.64 0 0 72.3 55.1 92.96 56.66 0 0 36.89-165.26 29.5-225.08 0 0-85.57-33.05-340.85-245.54C81.45 181.33 69.65 151.42 69.65 151.42z"/>
		<path fill="url(#lGrad3)" d="M78.56 181.3s-22.68-29.63-41.43-60c0 8.58-5.71 101.44-5.71 101.44s-5.71 65.71 37.14 117.14c42.86 51.43 192.86 244.29 480 437.14 0 0 70 50 90 51.43 0 0 35.72-150 28.57-204.28 0 0-82.85-30-330-222.86C90 208.45 78.56 181.3 78.56 181.3z"/>
	</g>
	<text x="50" y="550">
		<tspan dy="15 5 5 0 0 0 0 0 0 -3 -4 -5">
			Complex PTSD
		</tspan>
	</text>
</svg>
