<svg fill="#28332c" xmlns="http://www.w3.org/2000/svg" viewBox="627 -90 1306 1780" height="250px">
	<style>
		#eyes {
			-webkit-animation: blink 5s ease-in-out infinite;
			        animation: blink 5s ease-in-out infinite;
			transform-origin: center;
			transform-box: fill-box;
		}
		@-webkit-keyframes blink {
			0%, to {
				fill: #440101;
				transform: scaleY(1);
			}
			50% {
				fill: red;
				transform: scaleY(0.87);
			}
		}
		@keyframes blink {
			0%, to {
				fill: #440101;
				transform: scaleY(1);
			}
			50% {
				fill:red;
				transform: scaleY(0.87);
			}
		}
	</style>
	<g id="ears">
		<g class="left">
			<path d="M930 102c12 15 25 30 35 47 15 24 29 50 43 75l11 17-3-17c-3-11-4-23-6-34l32 71 6 39c3 35 12 69 25 102l11 33c1 6 4 11 6 16l10 22-12 4c-6 2-10 5-15 8l-7 6-16 17c-7 8-12 18-18 28l-2 17-21-3-47 7-44 6 8-35 14-29 17 12 20 20 29-7c2-1 5-1 7-3l32-34 2-26c-1-19-3-39-6-58-1-12-4-23-7-34l-10-45c-4-11-9-21-12-32-2-6-3-13-8-19l-24-39-18-28c-13-17-25-35-40-51l-27-27-25 20-23 26-19 20c-7 8-12 19-20 26l-14 13 4-21c2-10 6-19 10-28l30-80c4-10 7-21 12-31l14-31 17-42c8 21 15 43 24 63 8 13 16 27 25 39zM759 270l3 18c5 16 10 32 17 47l33 60c7 10 13 20 21 29l21 23-29 10-15 8-10 12c-3 3-3 7-4 10-1 4-3 8-2 12l4 23c3 17 10 33 18 48l12 12c4 2 8 2 12 2l13-8 5-13-14-4-16-8c19-7 38-13 56-22-1 10-4 19-2 29 2 6 2 12 2 18 3 3 7 5 9 10 4 5 7 10 9 16-9-3-18-7-28-6l-25 5c-7 3-12 10-18 16-8 8-17 16-27 21-9 3-17 6-24 11-5 4-11 8-13 15l2 10c3 5 8 7 13 8 14 4 27 11 39 18l-14 5-27 4-24 7c-9 5-16 15-22 24l-20 24c-6 11-13 21-21 31l4-22c0-6 3-12 5-18 8-22 18-43 27-64 5-9 5-20 7-29 3-13 4-26 5-39l9-45 11-81 8-30c1-7 7-12 9-19l3-18-6-22c-7-14-17-28-26-42-9-24-16-50-15-76-1-9 3-16 5-24s7-15 11-22c5-8 9-16 15-23-2 16-5 32-6 49z"/>
			<path d="M885 315c2 4 2 8 5 12l9 16 10 8 54-3 16-4 13-9-2 14-13 21c-8 2-16 3-25 2-13 0-25 4-37 6h-40l-10-8c-1-1-3-2-3-4l-3-15 2-17 9-27 9-17 6 25zM946 423l30 25 20 19h-18l-17-4c-9-4-16-11-25-13l-11 5-11 16-3 8-2 14-1 16-8 16-1-36 2-28-4-10c-14-13-26-28-37-42l-10-17 40 21 10 2c1-3 5-6 3-10l-6-17 26 19 23 16z"/>
		</g>
		<g class="right">
			<path d="M1655 63c9-20 16-42 24-63l17 42 14 31c5 10 8 21 12 31l30 80c4 9 8 18 10 28l4 21-14-13c-8-7-13-18-20-26l-19-20-23-26-25-20-27 27c-15 16-27 34-40 51l-18 28-24 39c-5 6-6 13-8 19-3 11-8 21-12 32l-10 45c-3 11-6 22-7 34-3 19-5 39-6 58l2 26 32 34c2 2 5 2 7 3l29 7 20-20 17-12 14 29 8 35-44-6-47-7-21 3-2-17c-6-10-11-20-18-28l-16-17-7-6c-5-3-9-6-15-8l-12-4 10-22c2-5 5-10 6-16l11-33c13-33 22-67 25-102l6-39 32-71c-2 11-3 23-6 34l-3 17 11-17c14-25 28-51 43-75 10-17 23-32 35-47 9-12 17-26 25-39zM1795 221c6 7 10 15 15 23 4 7 9 14 11 22s6 15 5 24c1 26-6 52-15 76-9 14-19 28-26 42l-6 22 3 18c2 7 8 12 9 19l8 30 11 81 9 45c1 13 2 26 5 39 2 9 2 20 7 29 9 21 19 42 27 64 2 6 5 12 5 18l4 22c-8-10-15-20-21-31l-20-24c-6-9-13-19-22-24l-24-7-27-4-14-5c12-7 25-14 39-18 5-1 10-3 13-8l2-10c-2-7-8-11-13-15-7-5-15-8-24-11-10-5-19-13-27-21-6-6-11-13-18-16l-25-5c-10-1-19 3-28 6 2-6 5-11 9-16 2-5 6-7 9-10 0-6 0-12 2-18 2-10-1-19-2-29 18 9 37 15 56 22l-16 8-14 4 5 13 13 8c4 0 8 0 12-2l12-12c8-15 15-31 18-48l4-23c1-4-1-8-2-12-1-3-1-7-4-10l-10-12-15-8-29-10 21-23c8-9 14-19 21-29l33-60c7-15 12-31 17-47l3-18c-1-17-4-33-6-49z"/>
			<path d="M1681 290l9 17 9 27 2 17-3 15c0 2-2 3-3 4l-10 8h-40c-12-2-24-6-37-6-9 1-17 0-25-2l-13-21-2-14 13 9 16 4 54 3 10-8 9-16c3-4 3-8 5-12l6-25zM1637 407l26-19-6 17c-2 4 2 7 3 10l10-2 40-21-10 17c-11 14-23 29-37 42l-4 10 2 28-1 36-8-16-1-16-2-14-3-8-11-16-11-5c-9 2-16 9-25 13l-17 4h-18l20-19 30-25 23-16z"/>
		</g>
	</g>
	<g id="skull">
		<g class="left">
			<path d="M962 632c5 3 7 9 11 13l-27 4c-6 0-8 5-12 8l5 9 14 9 3 6 5 13-4 17c-2 4-3 8-6 11-7 7-16 12-20 21l16 3 7-2c14-6 28-13 41-22 8-7 17-12 26-18l-6 21-19 23c-3 4-6 8-11 11l-12 9-47 23 11 7 24 19-24 17c-3 2-7 2-10 3l-39 10h-11l-13-2-18 4-5 10-3 7-1 22 4 13h11l38-39 7-4c6-2 13-5 20-6l16-2c7-2 15-1 22-2l-30 13-20 25c-2 2-1 6-2 9h14l39-24 19-5c5-2 11-2 17-2 14-2 28 1 42 2-16 7-32 13-47 21-9 3-15 9-23 15l-11 11c-4 5-5 10-8 15l13 1c7 2 13-4 20-6l14 1c-1 4 2 9-2 13-2 3-4 7-7 9-4 3-9 6-14 6l-15 1-21-1c-13-2-27-2-40-3l-20-2 36-18 1-7-34 5c-9 0-16 3-24 6l-6 9c-1 10-3 20-3 31l-7 13h-34c-15-3-29 0-44 0l18-12c8-6 18-10 28-15l7-20 4-40v-23l-56 6 36-19c2-2 6-3 7-6l7-13-5-29 24 8 33 5 32 1 18-3 12-7-13-5-15-3c-12-1-23-5-35-8l-67-22-13-9c22 2 43 6 64 9l26-1c7 0 13-3 19-5 11-3 20-9 31-14-25 0-50-2-75-4l-60-14 54-5 31-1 34-9c10-9 18-19 26-30l-4-20c-10-4-20-8-31-9-9-3-18 2-27 2-8-1-15 1-23-2l-18-4 45-25 25-10 19-3c11-3 23 0 34 0 5 0 8 4 12 5z"/>
			<path d="M1194 467l5 11 5 21-2 26 15-13 8-11 4-15-4-47 22 59c2 5 0 10 1 15l3 23 4 32 6 40v20c-3 11-9 21-11 32l-3 17 5 6 14-19 7-20c2 5 4 10 3 16l-2 20-13 28-21 22c-8 9-16 17-22 26-5 6-7 12-10 18l7 16c11-4 21-13 30-20 3-4 4-10 7-15l7-6c2 4 6 7 7 11 1 6 2 11 1 17s1 13-3 19c-4 9-10 18-15 26l-5 32 8 21c1 3 4 7 3 11l-4 31 19 18-7 8-17 16c-8 10-17 18-26 26l9-35c4-10 6-21 9-32 2-12 3-24 2-36-3-8-5-17-10-24-11-22-22-44-30-67l-3-18c-1-4-2-7-1-11l3-19c7-18 20-32 30-47 4-8 9-16 10-26 1-12 6-23 6-35 0-5 1-9-1-14l-8-36c-3-12-5-23-10-34l-5-1c-5 15-7 30-13 44l-13 10h-11l-9-6c-4-6-5-14-6-22 2-8 6-16 10-23 3-7 7-14 7-22 3-18-2-37-7-54-3-9-8-18-14-25-1 5-2 10-5 14-6 13-13 25-20 36-7 8-16 14-24 19l23 19-10-1c-11-2-21-6-33-6l-10 9-4 12c1 8 6 14 11 19 6 2 11 6 17 6l19 5c5 0 9 4 13 8l8 17c2 4 4 8 7 10l12 11c13 1 26 1 38 3-5 3-10 9-17 10l-15 4-23-3-33-6 13 19 7 15 6 18 1 13v15l-5 21-6 16c-3-12-4-25-5-38l-6-18c-3-6-5-12-10-16l-8-8-15-6c-10-4-19-11-29-16 11 12 23 25 33 39 3 10 8 21 10 32 1 5 3 10 2 15l-4 21c-1 13-2 26-1 39 0 4-1 8 1 11l9 14 15 14c8 7 13 17 20 25l20 26 11-8 6-12c3 9 3 20 3 30l-5 13-7 8-15-13c-8-10-15-21-24-30l-20-20-26-13-31-4h-39l-25-2c6-9 12-18 15-28l-4-9-4-7-13-11 26-3 28 6c11 4 21 11 33 13l-1-23 3-39-4-17c-10-23-24-44-38-66-7-9-13-20-22-28-3-5-9-6-14-9l-25-5c-7-1-13-5-20-7l-23-15c9-3 18-2 27-4l41-1 17 3 17 4 15 6 16 12 21 19 11 3 1-12c-3-10-8-19-13-28l-13-19c-2-3-5-7-6-11l-5-15 3-15 6-9 31-17c10-5 19-11 27-17l8-14c7-12 14-23 19-35l10-28 15 29 14 26z"/>
			<path d="M1139 323l23 12 11 9c7 4 15 7 21 12 4 3 9 4 14 6 3 1 5-1 8-1-3-18-7-35-8-53l5 8 22 46c7 14 17 26 25 40l2 9 3 24 7 53-2 30c-3-10-6-19-7-29-3-22-9-44-18-64-8-14-18-28-30-39-5-4-11-6-16-9-8-3-16-4-24-8l-10-6-11-14-13-10-11 1-10 7 2 36 10 5 17-6c-1 5-1 11-3 16l-8 16-12 17-24-54-5-24c-3-20 0-39 2-58l18 13 22 15z"/>
		</g>
		<g class="right">
			<path d="M1443 308l18-13c2 19 5 38 2 58l-5 24-24 54-12-17-8-16c-2-5-2-11-3-16l17 6 10-5 2-36-10-7-11-1-13 10-11 14-10 6c-8 4-16 5-24 8-5 3-11 5-16 9-12 11-22 25-30 39-9 20-15 42-18 64-1 10-4 19-7 29l-2-30a594 594 0 0110-77l2-9c8-14 18-26 25-40a398 398 0 0027-54c-1 18-5 35-8 53 3 0 5 2 8 1 5-2 10-3 14-6 6-5 14-8 21-12l11-9 23-12 22-15z"/>
			<path d="M1380 441l15-29 10 28c5 12 12 23 19 35l8 14c8 6 17 12 27 17l31 17 6 9 3 15-5 15c-1 4-4 8-6 11l-13 19c-5 9-10 18-13 28l1 12 11-3 21-19 16-12 15-6 17-4 17-3 41 1c9 2 18 1 27 4l-23 15c-7 2-13 6-20 7l-25 5c-5 3-11 4-14 9-9 8-15 19-22 28-14 22-28 43-38 66l-4 17 3 39-1 23c12-2 22-9 33-13l28-6 26 3-13 11-4 7-4 9c3 10 9 19 15 28l-25 2h-39l-31 4-26 13-20 20c-9 9-16 20-24 30l-15 13-7-8-5-13c0-10 0-21 3-30l6 12 11 8 20-26c7-8 12-18 20-25l15-14 9-14c2-3 1-7 1-11a358 358 0 00-5-60c-1-5 1-10 2-15 2-11 7-22 10-32 10-14 22-27 33-39-10 5-19 12-29 16l-15 6-8 8c-5 4-7 10-10 16l-6 18c-1 13-2 26-5 38l-6-16-5-21v-15l1-13 6-18 7-15 13-19-33 6-23 3-15-4c-7-1-12-7-17-10 12-2 25-2 38-3l12-11c3-2 5-6 7-10l8-17c4-4 8-8 13-8l19-5c6 0 11-4 17-6 5-5 10-11 11-19l-4-12-10-9c-12 0-22 4-33 6l-10 1 23-19c-8-5-17-11-24-19-7-11-14-23-20-36-3-4-4-9-5-14-6 7-11 16-14 25-5 17-10 36-7 54 0 8 4 15 7 22 4 7 8 15 10 23-1 8-2 16-6 22l-9 6h-11l-13-10c-6-14-8-29-13-44l-5 1c-5 11-7 22-10 34l-8 36c-2 5-1 9-1 14 0 12 5 23 6 35 1 10 6 18 10 26 10 15 23 29 30 47l3 19c1 4 0 7-1 11l-3 18c-8 23-19 45-30 67-5 7-7 16-10 24-1 12 0 24 2 36 3 11 5 22 9 32l9 35c-9-8-18-16-26-26l-17-16-7-8 19-18-4-31c-1-4 2-8 3-11l8-21-5-32c-5-8-11-17-15-26-4-6-2-13-3-19s0-11 1-17c1-4 5-7 7-11l7 6c3 5 4 11 7 15 9 7 19 16 30 20l7-16c-3-6-5-12-10-18-6-9-14-17-22-26l-21-22-13-28-2-20c-1-6 1-11 3-16l7 20 14 19 5-6-3-17c-2-11-8-21-11-32v-20l6-40 4-32 3-23c1-5-1-10 1-15l22-59-4 47 4 15 8 11 15 13-2-26 5-21 5-11 14-26z"/>
			<path d="M1610 627c11 0 23-3 34 0l19 3 25 10 45 25-18 4c-8 3-15 1-23 2-9 0-18-5-27-2-11 1-21 5-31 9l-4 20c8 11 16 21 26 30l34 9 31 1 54 5-60 14c-25 2-50 4-75 4 11 5 20 11 31 14 6 2 12 5 19 5l26 1c21-3 42-7 64-9l-13 9-67 22c-12 3-23 7-35 8l-15 3-13 5 12 7 18 3 32-1 33-5 24-8-5 29 7 13c1 3 5 4 7 6l36 19-56-6v23l4 40 7 20c10 5 20 9 28 15l18 12c-15 0-29-3-44 0h-34l-7-13c0-11-2-21-3-31l-6-9c-8-3-15-6-24-6l-34-5 1 7 36 18-20 2c-13 1-27 1-40 3l-21 1-15-1c-5 0-10-3-14-6-3-2-5-6-7-9-4-4-1-9-2-13l14-1c7 2 13 8 20 6l13-1c-3-5-4-10-8-15l-11-11c-8-6-14-12-23-15-15-8-31-14-47-21 14-1 28-4 42-2 6 0 12 0 17 2l19 5 39 24h14c-1-3 0-7-2-9l-20-25-30-13c7 1 15 0 22 2l16 2c7 1 14 4 20 6l7 4 38 39h11l4-13-1-22-3-7-5-10-18-4-13 2h-11l-39-10c-3-1-7-1-10-3l-24-17 24-19 11-7-47-23-12-9c-5-3-8-7-11-11l-19-23-6-21c9 6 18 11 26 18 13 9 27 16 41 22l7 2 16-3c-4-9-13-14-20-21-3-3-4-7-6-11l-4-17 5-13 3-6 14-9 5-9c-4-3-6-8-12-8l-27-4c4-4 6-10 11-13 4-1 7-5 12-5z"/>
		</g>
	</g>
	<g id="eyes">
		<g class="left">
			<path d="M1122 902c5 9 2 23-8 28-4 3-10 3-15 0-7-4-13-12-12-20 2-12 16-18 26-14 4 1 7 3 9 6z"/>
			<path d="M1079 891c-2 4-5 8-6 13-1 4 2 7 2 10 1 10 4 20 13 25l18 8 13-3 7-6c2-2 4-3 4-5l4-18 15 9 12 11c1 1 3 2 2 3l-5 15-14 32-35-20-7-2-22-5-9-5-14-9-7-13-10-27 1-18 21-6 17-3 17 1-17 13z"/>
		</g>
		<g class="right">
			<path d="M1447 896c10-4 24 2 26 14 1 8-5 16-12 20-5 3-11 3-15 0-10-5-13-19-8-28 2-3 5-5 9-6z"/>
			<path d="M1464 878l17-1 17 3 21 6 1 18-10 27-7 13-14 9-9 5-22 5-7 2-35 20-14-32-5-15c-1-1 1-2 2-3l12-11 15-9 4 18c0 2 2 3 4 5l7 6 13 3 18-8c9-5 12-15 13-25 0-3 3-6 2-10-1-5-4-9-6-13l-17-13z"/>
		</g>
	</g>
	<g id="chin">
		<g class="left">
			<path d="M955 1145l-9 15 23-6 26-9c-5 8-11 16-15 25l2 5c9-1 17-6 25-9l-7 13c-5 12-6 27-1 39l7 14 18-9 16-5-11 30c-3 13-7 26-6 39-1 10 1 19 2 28l3 33-16-27-4-11-9-22c-3-10-3-21-4-31-8-2-16-5-25-6-12 0-23-3-34-5-8-1-16 0-24-4l-30-16c20-2 39 1 59 3 13-1 26 0 38-5l4-8c-13-8-27-14-42-18-15-1-30 1-45-1h-44l19-8c5-2 12-2 17-3l34-4-10-8-26-4c-7-1-15 0-22-4l-18-6c17-2 34-3 50-8 9-3 18-6 27-11 16-14 29-32 42-50-1 18-3 37-10 54z"/>
			<path d="M1021 978c-2 3 0 6 1 8l12 7c22 8 46 11 69 14 13 3 27 3 41 5-4 8-9 16-7 25l5 1 29-6c1 4 3 8 3 13l-2 30c0 13 3 26 1 39-1 25-6 49-13 72-3 8-4 16-8 24l-6 14-10 30-7 24-10 27c-2 13 0 25-1 38v36l4 27c1 10 4 19 6 29 3 12 7 24 9 37l-12-6c-8-4-15-11-22-16-6-5-13-8-17-14-7-9-16-17-24-25-4-3-5-8-7-12l-7-18-3-12c0-8-2-15-1-23l2-17 6 23 5 12c3 4 4 8 8 11l10 12 13 9 9 3 4-10 1-12c1-4-1-8-2-12-4-13-12-24-18-36l-10-28c-3-6-5-14-6-21 0-5 0-10 3-13l13-18c14-16 28-32 39-51l13-19-4 32c5-8 8-17 12-25s6-17 9-25c3-7 3-14 4-20 2-9 1-18 1-27l-4-33c-4-4-9-7-15-7-9 15-21 29-25 46-1 5-4 8-6 12-2-8-5-17-4-25 0-5 0-9 2-14l9-19 8-19-3-9-16 4-16 4-30 6c-12 4-22 10-33 16l13-16c2-4 5-5 8-7l21-13c7-5 14-11 22-15l-16-10-14-3-21-5c-12-3-24-2-35-2-20-2-40-1-60 3l-13 6c8-8 16-17 25-24l22-14 19-8c11-3 23-4 35-4l-8 14zM1184 974c0 11 4 22 8 33l10 7c6 2 12 6 18 5 12 1 25 1 36 6-7 5-15 10-21 17-7 5-12 13-18 20l-22 29v-41l1-13-2-15-31-20 14-45 17-27c-2 15-5 30-10 44z"/>
		</g>
		<g class="right">
			<path d="M1595 1091c13 18 26 36 42 50 9 5 18 8 27 11 16 5 33 6 50 8l-18 6c-7 4-15 3-22 4l-26 4-10 8 34 4c5 1 12 1 17 3l19 8h-44c-15 2-30 0-45 1-15 4-29 10-42 18l4 8c12 5 25 4 38 5 20-2 39-5 59-3l-30 16c-8 4-16 3-24 4-11 2-22 5-34 5-9 1-17 4-25 6-1 10-1 21-4 31l-9 22-4 11-16 27 3-33c1-9 3-18 2-28 1-13-3-26-6-39l-11-30 16 5 18 9 7-14c5-12 4-27-1-39l-7-13c8 3 16 8 25 9l2-5c-4-9-10-17-15-25l26 9 23 6-9-15c-7-17-9-36-10-54z"/>
			<path d="M1531 964c12 0 24 1 35 4l19 8 22 14c9 7 17 16 25 24l-13-6c-20-4-40-5-60-3-11 0-23-1-35 2l-21 5-14 3-16 10c8 4 15 10 22 15l21 13c3 2 6 3 8 7l13 16c-11-6-21-12-33-16l-30-6-16-4-16-4-3 9 8 19 9 19c2 5 2 9 2 14 1 8-2 17-4 25-2-4-5-7-6-12-4-17-16-31-25-46-6 0-11 3-15 7l-4 33c0 9-1 18 1 27 1 6 1 13 4 20 3 8 5 17 9 25s7 17 12 25l-4-32 13 19c11 19 25 35 39 51l13 18c3 3 3 8 3 13-1 7-3 15-6 21l-10 28c-6 12-14 23-18 36-1 4-3 8-2 12l1 12 4 10 9-3 13-9 10-12c4-3 5-7 8-11l5-12 6-23 2 17c1 8-1 15-1 23l-3 12-7 18c-2 4-3 9-7 12-8 8-17 16-24 25-4 6-11 9-17 14-7 5-14 12-22 16l-12 6c2-13 6-25 9-37 2-10 5-19 6-29l4-27v-36c-1-13 1-25-1-38l-10-27-7-24-10-30-6-14c-4-8-5-16-8-24-7-23-12-47-13-72-2-13 1-26 1-39l-2-30c0-5 2-9 3-13l29 6 5-1c2-9-3-17-7-25 14-2 28-2 41-5 23-3 47-6 69-14l12-7c1-2 3-5 1-8l-8-14zM1366 930l17 27 14 45-31 20-2 15 1 13v41l-22-29c-6-7-11-15-18-20-6-7-14-12-21-17 11-5 24-5 36-6 6 1 12-3 18-5l10-7c4-11 8-22 8-33-5-14-8-29-10-44z"/>
		</g>
	</g>
	<g id="nose">
		<g class="left">
			<path d="M1267 1051l4 13c1 2 2 5 1 8l-5 19-10 28c1 12 9 22 13 33l1 12c0 7 2 14 1 21l-8-13-13-18-9-32c-1-4 1-8 1-12l6-27-6-4c-8 4-16 4-23 6l9-14c3-6 8-9 12-14 5-6 13-9 19-13l7 7z"/>
			<path stroke="#28332c" d="M1184 1360l31-11 33-12 32-11v166h0s0 0 0 0c-20-3-40-7-60-13-3 0-4-3-6-6-9-18-18-36-25-56l-4-20c-2-12-1-24-2-37h1z"/>
			<path d="M1214 1511c16 1 32 4 48 9 6 5 9 12 11 19 1 9 2 17 1 26 0 11 0 21-2 31l-17 4-17-1c-5 1-10-2-14-4-5-2-10-3-14-7l-11-10-9-12 21 6 18 9 31 5 4-14c1-1 2-3 1-5l-6-15c-15-5-31-6-46-9-9-3-19-2-28-3l-18-7c-2-1-4-1-5-3l-7-15c-2-6-3-13-6-19-1-4 2-8 2-11 7 8 14 16 23 22 13 3 26 2 40 4z"/>
		</g>
		<g class="right">
			<path d="M1300 1044c6 4 14 7 19 13 4 5 9 8 12 14l9 14c-7-2-15-2-23-6l-6 4 6 27c0 4 2 8 1 12l-9 32-13 18-8 13c-1-7 1-14 1-21l1-12c4-11 12-21 13-33l-10-28-5-19c-1-3 0-6 1-8l4-13 7-7z"/>
			<path stroke="#28332c" d="M1376 1360l-31-11-33-12-32-11v166h0s0 0 0 0c20-3 40-7 60-13 3 0 4-3 6-6 9-18 18-36 25-56l4-20c2-12 1-24 2-37h-1z"/>
			<path d="M1386 1507c9-6 16-14 23-22 0 3 3 7 2 11-3 6-4 13-6 19l-7 15c-1 2-3 2-5 3l-18 7c-9 1-19 0-28 3-15 3-31 4-46 9l-6 15c-1 2 0 4 1 5l4 14 31-5 18-9 21-6-9 12-11 10c-4 4-9 5-14 7-4 2-9 5-14 4l-17 1-17-4c-2-10-2-20-2-31-1-9 0-17 1-26 2-7 5-14 11-19 16-5 32-8 48-9 14-2 27-1 40-4z"/>
		</g>
	</g>
</svg>
