<svg xmlns="http://www.w3.org/2000/svg" viewBox="0 0 284 360" height="250px" id="wolf">
  <defs>
    <linearGradient id="my-warm-gradient" x2="1" y2="1">
      <stop offset="0%" stop-color="#CC7744">
        <animate dur="2" attributeName="offset" fill="freeze" from="0" to="50%"/>
      </stop>
      <stop offset="50%" stop-color="#992244">
        <animate dur="2" attributeName="offset" fill="freeze" from="50%" to="99%"/>
      </stop>
      <stop offset="100%" stop-color="#661133">
        <animate dur="2" attributeName="offset" fill="freeze" from="99%" to="100%"/>
      </stop>
    </linearGradient>
    <style>
      g {
        fill: #28332c;
      }
      img svg#wolf g,
      svg#wolf:hover g {
        fill: url(#my-warm-gradient) red; 
      }
  </style>
</defs>
  <g>
    <path d="M150 296l6 9 3-7 3 4v17c12-4 12-38 15-55 2-18-1-53 46-85-5-13-7-28-2-45 16 1 31 6 36 30l-17 5c6 13 10 27 8 41l-16-4-3 19-11-4-5 19-11-4 15 12 5-16 14 3 4-20 15 8c0-11 4-33-5-48l15 3c2-13-1-22-4-32l12 5c0-14-17-32-35-33-11-1-32-14-30-29 1-12 9-25 24-29-25 21-5 39 3 42 3-6 10-39 0-74a97 97 0 00-53 84l-33 22-2 53 61-34 4 4-10 2-25 22-9-3-16 28-2 68 12 9-18 9-19-9 12-9-2-68-16-28-9 3-25-22-10-2 4-4 61 34-2-53-33-22c-2-47-30-71-53-84-10 35-2 68 0 74 9-3 28-21 3-42 15 4 23 17 25 29 1 15-20 28-31 29-18 1-35 19-35 33l13-5c-4 10-7 19-5 32l15-3c-9 15-5 37-5 48l15-8 4 20 14-3 5 16 15-12-11 4-5-19-10 4-4-19-15 4c-3-14 1-28 7-41l-17-5c5-24 20-29 36-30 5 17 3 32-2 45 47 32 44 67 47 85 2 17 2 51 14 55v-17l3-4 3 7 6-9 7 12z"/>
    <path d="M195 242l-9-6 11-7c0 4 0 8-2 13zM211 214l-1 18-12-4 13-14zM225 217c0-8-1-14-3-19l-10 16zM227 171c11 7 16 19 17 32l-21-6c3-7 4-16 4-26zM226 145l1 24c11-5 17-6 25-8-6-11-15-15-26-16zM92 242l9-6-11-7c0 4 0 8 2 13zM76 214l1 18 12-4-13-14zM62 217c0-8 1-14 3-19 3 5 6 10 11 15zM60 171c-11 7-16 19-17 32l21-6c-3-7-4-16-4-26zM61 145l-1 24c-11-5-17-6-25-8 6-11 15-15 26-16z"/>
  </g>
</svg>
